<mxfile host="app.diagrams.net" modified="2021-06-08T07:10:52.132Z" agent="5.0 (Macintosh; Intel Mac OS X 10_15_7) AppleWebKit/537.36 (KHTML, like Gecko) Chrome/86.0.4240.193 Safari/537.36" etag="RS0yYPJnJ4yY7Rcb-EMN" version="14.7.6" type="github">
  <diagram id="weatieHObjGM7QQUca1s" name="Page-1">
    <mxGraphModel dx="946" dy="537" grid="1" gridSize="10" guides="1" tooltips="1" connect="1" arrows="1" fold="1" page="1" pageScale="1" pageWidth="827" pageHeight="1169" math="0" shadow="0">
      <root>
        <mxCell id="0" />
        <mxCell id="1" parent="0" />
        <mxCell id="G2lR8SY5BCShL8O6eic3-4" style="edgeStyle=orthogonalEdgeStyle;rounded=0;orthogonalLoop=1;jettySize=auto;html=1;exitX=1;exitY=0.5;exitDx=0;exitDy=0;entryX=0;entryY=0.5;entryDx=0;entryDy=0;" edge="1" parent="1" source="G2lR8SY5BCShL8O6eic3-1" target="G2lR8SY5BCShL8O6eic3-2">
          <mxGeometry relative="1" as="geometry" />
        </mxCell>
        <mxCell id="G2lR8SY5BCShL8O6eic3-1" value="缓存页" style="rounded=1;whiteSpace=wrap;html=1;fillColor=#ffe6cc;strokeColor=#d79b00;" vertex="1" parent="1">
          <mxGeometry x="160" y="190" width="110" height="60" as="geometry" />
        </mxCell>
        <mxCell id="G2lR8SY5BCShL8O6eic3-5" style="edgeStyle=orthogonalEdgeStyle;rounded=0;orthogonalLoop=1;jettySize=auto;html=1;exitX=1;exitY=0.5;exitDx=0;exitDy=0;entryX=0;entryY=0.5;entryDx=0;entryDy=0;" edge="1" parent="1" source="G2lR8SY5BCShL8O6eic3-2" target="G2lR8SY5BCShL8O6eic3-3">
          <mxGeometry relative="1" as="geometry" />
        </mxCell>
        <mxCell id="G2lR8SY5BCShL8O6eic3-2" value="缓存页" style="rounded=1;whiteSpace=wrap;html=1;fillColor=#ffe6cc;strokeColor=#d79b00;" vertex="1" parent="1">
          <mxGeometry x="310" y="190" width="110" height="60" as="geometry" />
        </mxCell>
        <mxCell id="G2lR8SY5BCShL8O6eic3-3" value="缓存页" style="rounded=1;whiteSpace=wrap;html=1;fillColor=#ffe6cc;strokeColor=#d79b00;" vertex="1" parent="1">
          <mxGeometry x="460" y="190" width="110" height="60" as="geometry" />
        </mxCell>
        <mxCell id="G2lR8SY5BCShL8O6eic3-7" style="edgeStyle=orthogonalEdgeStyle;rounded=0;orthogonalLoop=1;jettySize=auto;html=1;exitX=0;exitY=0.5;exitDx=0;exitDy=0;entryX=0.5;entryY=0;entryDx=0;entryDy=0;" edge="1" parent="1" source="G2lR8SY5BCShL8O6eic3-6" target="G2lR8SY5BCShL8O6eic3-1">
          <mxGeometry relative="1" as="geometry" />
        </mxCell>
        <mxCell id="G2lR8SY5BCShL8O6eic3-8" style="edgeStyle=orthogonalEdgeStyle;rounded=0;orthogonalLoop=1;jettySize=auto;html=1;exitX=1;exitY=0.5;exitDx=0;exitDy=0;entryX=0.5;entryY=0;entryDx=0;entryDy=0;" edge="1" parent="1" source="G2lR8SY5BCShL8O6eic3-6" target="G2lR8SY5BCShL8O6eic3-3">
          <mxGeometry relative="1" as="geometry" />
        </mxCell>
        <mxCell id="G2lR8SY5BCShL8O6eic3-6" value="LRU链表" style="rounded=1;whiteSpace=wrap;html=1;fillColor=#f5f5f5;strokeColor=#666666;fontColor=#333333;" vertex="1" parent="1">
          <mxGeometry x="310" y="80" width="110" height="60" as="geometry" />
        </mxCell>
        <mxCell id="G2lR8SY5BCShL8O6eic3-9" value="头指针" style="text;html=1;strokeColor=none;fillColor=none;align=center;verticalAlign=middle;whiteSpace=wrap;rounded=0;" vertex="1" parent="1">
          <mxGeometry x="240" y="80" width="40" height="20" as="geometry" />
        </mxCell>
        <mxCell id="G2lR8SY5BCShL8O6eic3-10" value="尾指针" style="text;html=1;strokeColor=none;fillColor=none;align=center;verticalAlign=middle;whiteSpace=wrap;rounded=0;" vertex="1" parent="1">
          <mxGeometry x="450" y="80" width="40" height="20" as="geometry" />
        </mxCell>
        <mxCell id="G2lR8SY5BCShL8O6eic3-11" value="刚加载进来频繁访问" style="text;html=1;strokeColor=none;fillColor=none;align=center;verticalAlign=middle;whiteSpace=wrap;rounded=0;" vertex="1" parent="1">
          <mxGeometry x="182.5" y="270" width="65" height="20" as="geometry" />
        </mxCell>
        <mxCell id="G2lR8SY5BCShL8O6eic3-12" value="预读机制加载进来的，没人访问" style="text;html=1;strokeColor=none;fillColor=none;align=center;verticalAlign=middle;whiteSpace=wrap;rounded=0;" vertex="1" parent="1">
          <mxGeometry x="321.25" y="270" width="87.5" height="20" as="geometry" />
        </mxCell>
        <mxCell id="G2lR8SY5BCShL8O6eic3-13" value="之前加载进来的，有人访问" style="text;html=1;strokeColor=none;fillColor=none;align=center;verticalAlign=middle;whiteSpace=wrap;rounded=0;" vertex="1" parent="1">
          <mxGeometry x="471.25" y="270" width="87.5" height="20" as="geometry" />
        </mxCell>
      </root>
    </mxGraphModel>
  </diagram>
</mxfile>
